<?xml version="1.0" encoding="UTF-8" standalone="no"?>
<!-- Generator: Adobe Illustrator 21.1.0, SVG Export Plug-In . SVG Version: 6.00 Build 0)  -->

<svg
   version="1.1"
   id="Livello_1"
   x="0px"
   y="0px"
   viewBox="0 0 285.72897 285.72897"
   xml:space="preserve"
   sodipodi:docname="pdlogo.svg"
   width="285.72897"
   height="285.72897"
   inkscape:version="1.3.2 (091e20e, 2023-11-25, custom)"
   inkscape:export-filename="pdlogo.pdf"
   inkscape:export-xdpi="96"
   inkscape:export-ydpi="96"
   xmlns:inkscape="http://www.inkscape.org/namespaces/inkscape"
   xmlns:sodipodi="http://sodipodi.sourceforge.net/DTD/sodipodi-0.dtd"
   xmlns="http://www.w3.org/2000/svg"
   xmlns:svg="http://www.w3.org/2000/svg"
   xmlns:rdf="http://www.w3.org/1999/02/22-rdf-syntax-ns#"
   xmlns:cc="http://creativecommons.org/ns#"
   xmlns:dc="http://purl.org/dc/elements/1.1/"><metadata
     id="metadata81"><rdf:RDF><cc:Work
         rdf:about=""><dc:format>image/svg+xml</dc:format><dc:type
           rdf:resource="http://purl.org/dc/dcmitype/StillImage" /><dc:title /></cc:Work></rdf:RDF></metadata><defs
     id="defs79" /><sodipodi:namedview
     pagecolor="#ffffff"
     bordercolor="#666666"
     borderopacity="1"
     objecttolerance="10"
     gridtolerance="10"
     guidetolerance="10"
     inkscape:pageopacity="0"
     inkscape:pageshadow="2"
     inkscape:window-width="1920"
     inkscape:window-height="1057"
     id="namedview77"
     showgrid="false"
     inkscape:pagecheckerboard="true"
     fit-margin-top="0"
     fit-margin-left="0"
     fit-margin-right="0"
     fit-margin-bottom="0"
     inkscape:zoom="1.5855316"
     inkscape:cx="214.43912"
     inkscape:cy="188.89564"
     inkscape:window-x="1592"
     inkscape:window-y="-8"
     inkscape:window-maximized="1"
     inkscape:current-layer="Livello_1"
     inkscape:showpageshadow="0"
     inkscape:deskcolor="#d1d1d1" /><style
     type="text/css"
     id="style2">
	.st0{fill-rule:evenodd;clip-rule:evenodd;fill:#FFFFFF;stroke:#000000;stroke-width:2.1249;stroke-miterlimit:22.9256;}
	.st1{fill-rule:evenodd;clip-rule:evenodd;fill:#FFFFFF;}
	.st2{fill:#31A142;}
	.st3{fill:#ED1C24;}
	.st4{fill:#E81E25;}
	.st5{fill:#6D6E71;}
	.st6{fill:#BCBEC0;}
</style><path
     class="st0"
     d="m 139.01448,284.61448 c -78.299996,-2.1 -139.99999551,-67.3 -137.8999955,-145.6 2.1,-78.299996 67.2999995,-139.99999551 145.5999955,-137.8999955 78.3,2.1 140,67.2999995 137.9,145.5999955 -2.2,78.3 -67.4,140 -145.6,137.9 z"
     id="path4"
     inkscape:connector-curvature="0"
     style="clip-rule:evenodd;fill:#ffffff;fill-rule:evenodd;stroke:#000000;stroke-width:2.1249001;stroke-miterlimit:22.92560005" /><g
     id="g74"
     transform="translate(-155.28552,-258.88552)"><rect
       x="191.10001"
       y="315.70001"
       class="st1"
       width="213.60001"
       height="128.10001"
       id="rect6"
       style="clip-rule:evenodd;fill:#ffffff;fill-rule:evenodd" /><path
       class="st2"
       d="m 225.2,353.6 v 30.8 h 12.9 c 13.6,0 17.1,-10.4 17.1,-20.1 0,-8.4 -3.3,-18.4 -16.5,-18.4 h -21.8 c 0,0 8.3,0 8.3,7.7 z m -11.4,90.3 H 191.1 V 315.4 h 48.5 c 29.3,0 48.8,17.3 48.8,48.3 0,32.7 -21.1,49.7 -51.1,49.7 h -12 v 18.7 c -0.1,0.1 0.3,11.8 -11.5,11.8 z"
       id="path8"
       inkscape:connector-curvature="0"
       style="fill:#31a142" /><path
       class="st3"
       d="m 300.7,353.6 v 59.8 h 7.5 c 21.6,0 30,-8.4 30,-34 0,-23.7 -7.3,-33.6 -28.9,-33.6 h -3.4 -13.6 c 0,0.1 8.4,0.1 8.4,7.8 z"
       id="path10"
       inkscape:connector-curvature="0"
       style="fill:#ed1c24" /><path
       class="st4"
       d="m 321.6,315.4 c 32.2,3.2 52.2,20.4 52.2,63.5 0,44 -19.3,62.1 -56.3,65 H 405 V 315.4 Z"
       id="path12"
       inkscape:connector-curvature="0"
       style="fill:#e81e25" /><path
       class="st5"
       d="m 268.4,443.6 c 0,0 0.8,-0.5 0.9,-0.8 0,0 0.7,0.8 0.8,1.8 0,0 0,2.3 0,3.2 l -0.5,11.3 c 0,0 -0.2,1 0.1,1.3 0,0 0.5,0.5 1,-0.3 l 0.7,0.7 c 0,0 -0.9,1.1 -1.5,0.9 l -1.5,18.9 c 0,0 -0.4,4.7 0.3,5.5 0,0 -3.3,0.6 -4.6,2.2 0,0 2.5,-4.4 2.8,-8.7 l 1.3,-17.3 c 0,0 0.1,-1.1 -0.6,-1.4 l -1.8,-0.8 c 0,0 0.3,-0.8 0.1,-1.3 l 1.7,0.6 c 0,0 0.4,0.2 0.5,-0.4 l 0.4,-9.3 -0.6,0.3 c 0,0 -0.1,-0.4 -0.4,-0.7 l 0.9,-0.7 v -1.5 c 0,0 0,-0.9 -0.8,-1.1 l -1.4,-0.2 c 0,0 -0.1,-0.6 -0.2,-0.9 l 1.9,0.2 c 0,0 0.9,0.1 0.8,-0.5 z"
       id="path14"
       inkscape:connector-curvature="0"
       style="fill:#6d6e71" /><path
       class="st2"
       d="m 290.7,445 c 0.6,1.1 -1.1,3.9 -1.1,3.9 -4.2,5.8 -10,10 -16.5,12 0,0 -1.5,0.2 -1.9,-0.6 z"
       id="path16"
       inkscape:connector-curvature="0"
       style="fill:#31a142" /><path
       class="st2"
       d="m 270.8,460 c -0.6,-1.1 1.1,-3.9 1.1,-3.9 4.2,-5.8 10,-10 16.5,-12 0,0 1.5,-0.2 1.9,0.6 z"
       id="path18"
       inkscape:connector-curvature="0"
       style="fill:#31a142" /><path
       class="st2"
       d="m 266.3,445.5 c 0.1,1.2 -2.6,3.1 -2.6,3.1 -6.3,3.4 -13.3,4.7 -20,3.9 0,0 -1.4,-0.4 -1.5,-1.4 z"
       id="path20"
       inkscape:connector-curvature="0"
       style="fill:#31a142" /><path
       class="st2"
       d="m 242,450.7 c -0.1,-1.2 2.6,-3.1 2.6,-3.1 6.3,-3.5 13.3,-4.7 20.1,-3.9 0,0 1.4,0.4 1.5,1.4 z"
       id="path22"
       inkscape:connector-curvature="0"
       style="fill:#31a142" /><path
       class="st2"
       d="m 266,459.1 c 0.1,1.2 -2.7,3 -2.7,3 -6.4,3.3 -13.5,4.3 -20.2,3.2 0,0 -1.4,-0.5 -1.5,-1.4 z"
       id="path24"
       inkscape:connector-curvature="0"
       style="fill:#31a142" /><path
       class="st2"
       d="m 241.4,463.5 c -0.1,-1.2 2.7,-3 2.7,-3 6.4,-3.2 13.5,-4.3 20.2,-3.2 0,0 1.4,0.5 1.5,1.4 z"
       id="path26"
       inkscape:connector-curvature="0"
       style="fill:#31a142" /><path
       class="st2"
       d="m 247,462.4 c -0.4,-0.1 -0.7,-0.3 -0.9,-0.7 l 21.7,-12 c 0.5,1.1 -1.7,3.7 -1.7,3.7 -3.5,3.4 -7.5,6 -11.9,7.6 z"
       id="path28"
       inkscape:connector-curvature="0"
       style="fill:#31a142" /><path
       class="st6"
       d="m 254.2,460.9 -7.2,1.5 z"
       id="path30"
       inkscape:connector-curvature="0"
       style="fill:#bcbec0" /><path
       class="st2"
       d="m 245.8,461.3 c -0.5,-1.2 1.7,-3.7 1.7,-3.7 5.1,-5.1 11.5,-8.3 18.2,-9.3 0,0 1.5,0 1.8,0.9 z"
       id="path32"
       inkscape:connector-curvature="0"
       style="fill:#31a142" /><path
       class="st2"
       d="m 268.6,443.5 c -1,0.7 -3.9,-1 -3.9,-1 -5.9,-4.1 -10.2,-9.8 -12.5,-16.2 0,0 -0.2,-1.4 0.5,-1.9 z"
       id="path34"
       inkscape:connector-curvature="0"
       style="fill:#31a142" /><path
       class="st2"
       d="m 253.1,424.1 c 1,-0.7 3.9,1 3.9,1 5.9,4.1 10.2,9.8 12.5,16.2 0,0 0.3,1.5 -0.5,1.9 z"
       id="path36"
       inkscape:connector-curvature="0"
       style="fill:#31a142" /><path
       d="m 193.6,475.6 h 2.7 c 1,0 3.5,-0.3 3.5,-3.3 0,-3 -2.2,-3.3 -2.8,-3.3 h -3.4 z m -2.5,10.8 v -19.6 h 5.8 c 2.6,0 5.4,1 5.4,5.6 0,4.4 -3.5,5.4 -5.5,5.4 h -3.3 v 8.6 z"
       id="path38"
       inkscape:connector-curvature="0" /><path
       d="m 206.1,482.4 c 0,1.3 0.7,2.5 2.1,2.5 1.4,0 3,-0.8 2.8,-5.3 -2.1,0.1 -4.9,-0.1 -4.9,2.8 z m 5,2.1 v 0 c -0.7,1.6 -1.8,2.3 -3.5,2.3 -2.9,0 -3.7,-1.9 -3.7,-4.5 0,-4.1 4.1,-4.3 7.2,-4.3 0.1,-1.8 0.1,-3.8 -2.3,-3.8 -1.5,0 -2.3,1 -2.1,2.4 h -2.4 c 0.1,-3.1 1.7,-4.1 4.6,-4.1 3.5,0 4.4,1.8 4.4,4.1 v 6.6 c 0,1.1 0.1,2.2 0.3,3.3 h -2.4 v -2 z"
       id="path40"
       inkscape:connector-curvature="0" /><path
       d="m 219,474.8 v 0 c 1,-2.1 2.1,-2.3 4.3,-2.3 v 2.3 c -0.4,0 -0.8,-0.1 -1.2,-0.1 -2.5,0 -3.1,1.9 -3.1,3.7 v 8.1 h -2.2 v -13.7 h 2.2 z"
       id="path42"
       inkscape:connector-curvature="0" /><path
       d="m 227,472.7 v -2.6 l 2.2,-1 v 3.6 h 3 v 1.7 h -3 v 8.4 c 0,0.9 0,2 2,2 0.2,0 0.5,-0.1 1,-0.1 v 1.7 c -0.7,0.1 -1.5,0.2 -2.2,0.2 -2.1,0 -3.1,-0.9 -3.1,-2.4 v -9.7 h -2.3 v -1.7 h 2.4 z"
       id="path44"
       inkscape:connector-curvature="0" /><path
       d="m 237,486.4 h -2.2 v -13.7 h 2.2 z m -2.4,-19.5 h 2.5 v 2.4 h -2.5 z"
       id="path46"
       inkscape:connector-curvature="0" /><path
       d="m 241.8,472.7 v -2.6 l 2.2,-1 v 3.6 h 3 v 1.7 h -3 v 8.4 c 0,0.9 0,2 2,2 0.2,0 0.5,-0.1 1,-0.1 v 1.7 c -0.7,0.1 -1.5,0.2 -2.2,0.2 -2.1,0 -3.1,-0.9 -3.1,-2.4 v -9.7 h -2.3 v -1.7 h 2.4 z"
       id="path48"
       inkscape:connector-curvature="0" /><path
       d="m 257.1,478.8 c 0,-3.7 -1.2,-4.6 -2.9,-4.6 -1.7,0 -2.9,0.8 -2.9,4.6 0,4.4 0.6,6 2.9,6 2.3,0.1 2.9,-1.5 2.9,-6 z m -8.1,1 c 0,-4 0.5,-7.3 5.2,-7.3 4.7,0 5.2,3.3 5.2,7.3 0,6 -2.3,6.9 -5.2,6.9 -2.9,0 -5.2,-0.9 -5.2,-6.9 z"
       id="path50"
       inkscape:connector-curvature="0" /><path
       d="m 278.7,484.3 h 2.4 c 3.5,0 4.7,-1.3 4.7,-5.9 v -4 c 0,-4 -1.2,-5.4 -3.8,-5.4 h -3.3 z m -2.5,-17.4 h 6 c 2.5,0 4.3,0.9 5.3,3 0.8,1.7 0.9,5.6 0.9,6.2 0,4.2 -0.4,6.6 -1.2,7.9 -1.1,1.7 -3,2.5 -6.5,2.5 h -4.5 z"
       id="path52"
       inkscape:connector-curvature="0" /><path
       d="m 298.8,478.6 c 0,-4 -1.1,-4.5 -2.7,-4.5 -1.4,0 -2.6,0.7 -2.6,4.5 z m -5.3,1.7 c 0,3.8 1,4.6 2.8,4.6 1.5,0 2.3,-1.2 2.4,-2.6 h 2.4 c 0,3 -1.9,4.4 -4.8,4.4 -2.9,0 -5.2,-0.9 -5.2,-6.9 0,-4 0.5,-7.3 5.2,-7.3 3.9,0 4.9,2.1 4.9,6.7 v 1.2 h -7.7 z"
       id="path54"
       inkscape:connector-curvature="0" /><path
       d="m 310.9,486.4 v -9.5 c 0,-1.4 -0.4,-2.7 -2.2,-2.7 -0.7,0 -1.6,0.4 -1.9,0.9 -0.4,0.7 -0.5,1.5 -0.5,2 v 9.2 h -2.2 v -10.8 c 0,-1 -0.1,-1.9 -0.1,-2.8 h 2.4 v 1.7 h 0.1 c 0.7,-1.5 1.8,-2 3.4,-2 1.2,0 2.7,0.5 3.2,1.8 0.8,-1.5 2,-1.8 3.2,-1.8 1.4,0 3.7,0.3 3.7,3.6 v 10.4 h -2.2 v -9.5 c 0,-1.4 -0.4,-2.7 -2.2,-2.7 -0.8,0 -1.1,0 -1.7,0.5 -0.6,0.5 -0.8,1.9 -0.8,2.4 v 9.2 h -2.2 z"
       id="path56"
       inkscape:connector-curvature="0" /><path
       d="m 330.8,478.8 c 0,-3.7 -1.2,-4.6 -2.9,-4.6 -1.7,0 -2.9,0.8 -2.9,4.6 0,4.4 0.6,6 2.9,6 2.4,0.1 2.9,-1.5 2.9,-6 z m -8,1 c 0,-4 0.5,-7.3 5.2,-7.3 4.7,0 5.2,3.3 5.2,7.3 0,6 -2.3,6.9 -5.2,6.9 -2.9,0 -5.2,-0.9 -5.2,-6.9 z"
       id="path58"
       inkscape:connector-curvature="0" /><path
       d="m 343,477.1 c 0.1,-2.3 -1.1,-2.9 -1.9,-2.9 -1.7,0 -2.9,0.8 -2.9,4.6 0,4.4 0.6,6 2.9,6 0.5,0 2.1,-0.5 2,-3 h 2.3 c 0.1,3.9 -2.8,4.8 -4.3,4.8 -2.9,0 -5.2,-0.9 -5.2,-6.9 0,-4 0.5,-7.3 5.2,-7.3 2.7,0 4.3,1.6 4.2,4.7 z"
       id="path60"
       inkscape:connector-curvature="0" /><path
       d="m 350.6,474.8 v 0 c 1,-2.1 2.1,-2.3 4.3,-2.3 v 2.3 c -0.4,0 -0.8,-0.1 -1.2,-0.1 -2.5,0 -3.1,1.9 -3.1,3.7 v 8.1 h -2.2 v -13.7 h 2.2 z"
       id="path62"
       inkscape:connector-curvature="0" /><path
       d="m 358.7,482.4 c 0,1.3 0.6,2.5 2.1,2.5 1.4,0 3,-0.8 2.8,-5.3 -2.1,0.1 -4.9,-0.1 -4.9,2.8 z m 5,2.1 v 0 c -0.7,1.6 -1.8,2.3 -3.5,2.3 -2.9,0 -3.7,-1.9 -3.7,-4.5 0,-4.1 4.1,-4.3 7.2,-4.3 0.1,-1.8 0.1,-3.8 -2.3,-3.8 -1.5,0 -2.3,1 -2.1,2.4 h -2.4 c 0.1,-3.1 1.7,-4.1 4.6,-4.1 3.5,0 4.4,1.8 4.4,4.1 v 6.6 c 0,1.1 0.1,2.2 0.3,3.3 h -2.4 v -2 z"
       id="path64"
       inkscape:connector-curvature="0" /><path
       d="m 370.1,472.7 v -2.6 l 2.2,-1 v 3.6 h 3 v 1.7 h -3 v 8.4 c 0,0.9 0,2 2,2 0.2,0 0.5,-0.1 1,-0.1 v 1.7 c -0.7,0.1 -1.5,0.2 -2.2,0.2 -2.1,0 -3.1,-0.9 -3.1,-2.4 v -9.7 h -2.3 v -1.7 h 2.4 z"
       id="path66"
       inkscape:connector-curvature="0" /><path
       d="m 380.1,486.4 h -2.2 v -13.7 h 2.2 z m -2.3,-19.5 h 2.5 v 2.4 h -2.5 z"
       id="path68"
       inkscape:connector-curvature="0" /><path
       d="m 389.9,477.1 c 0.1,-2.3 -1.1,-2.9 -1.9,-2.9 -1.7,0 -2.9,0.8 -2.9,4.6 0,4.4 0.6,6 2.9,6 0.5,0 2.1,-0.5 2,-3 h 2.3 c 0.1,3.9 -2.8,4.8 -4.3,4.8 -2.9,0 -5.2,-0.9 -5.2,-6.9 0,-4 0.5,-7.3 5.2,-7.3 2.7,0 4.3,1.6 4.2,4.7 z"
       id="path70"
       inkscape:connector-curvature="0" /><path
       d="m 402.9,478.8 c 0,-3.7 -1.2,-4.6 -2.9,-4.6 -1.7,0 -2.9,0.8 -2.9,4.6 0,4.4 0.6,6 2.9,6 2.3,0.1 2.9,-1.5 2.9,-6 z m -8.1,1 c 0,-4 0.5,-7.3 5.2,-7.3 4.7,0 5.2,3.3 5.2,7.3 0,6 -2.3,6.9 -5.2,6.9 -2.9,0 -5.2,-0.9 -5.2,-6.9 z"
       id="path72"
       inkscape:connector-curvature="0" /></g></svg>
